<?xml version="1.0" standalone="no"?>
<!DOCTYPE svg PUBLIC "-//W3C//DTD SVG 20010904//EN"
 "http://www.w3.org/TR/2001/REC-SVG-20010904/DTD/svg10.dtd">
<svg version="1.0" xmlns="http://www.w3.org/2000/svg"
 width="475.000000pt" height="525.000000pt" viewBox="0 0 475.000000 525.000000"
 preserveAspectRatio="xMidYMid meet">

<g transform="translate(0.000000,525.000000) scale(0.100000,-0.100000)"
fill="#000000" stroke="none">
<path d="M3310 4785 c-102 -80 -192 -145 -200 -144 -8 0 -34 4 -57 8 -24 5
-40 4 -37 0 7 -12 -3 -11 -27 1 -25 14 -44 3 -29 -15 7 -8 9 -18 6 -23 -3 -6
10 -13 29 -16 19 -4 37 -11 41 -17 5 -9 -38 -52 -108 -109 l-21 -17 31 -16 32
-16 98 82 c53 44 134 114 180 155 85 76 99 82 58 22 -62 -92 -256 -421 -256
-434 0 -9 5 -16 11 -16 8 0 8 -5 -1 -15 -7 -8 -9 -22 -6 -32 4 -9 1 -20 -6
-25 -10 -6 -10 -8 2 -8 22 0 64 81 48 92 -9 5 -6 8 10 8 12 0 25 0 30 1 4 0
11 -16 16 -36 7 -30 17 -40 52 -58 44 -21 45 -21 79 -3 34 19 35 19 56 0 12
-10 30 -31 41 -47 19 -27 19 -27 -1 -53 -25 -32 -26 -42 -5 -94 12 -29 22 -40
38 -40 40 0 47 -13 44 -75 l-3 -58 -39 -11 c-33 -9 -41 -17 -53 -51 -7 -22
-11 -45 -9 -52 3 -7 -1 -10 -10 -6 -18 6 -18 5 3 63 14 40 22 49 47 54 16 3
27 9 24 11 -3 3 -26 0 -51 -7 -38 -10 -48 -18 -63 -50 -22 -49 -29 -43 -8 7
20 50 21 159 2 206 -36 83 -136 157 -218 161 -26 1 -40 6 -40 15 0 8 -8 11
-22 9 -13 -3 -26 -5 -30 -5 -5 -1 -8 -7 -8 -13 -1 -25 -37 -90 -44 -79 -12 19
-20 13 -60 -49 -22 -33 -43 -60 -48 -60 -4 0 -14 13 -23 30 -9 16 -30 43 -48
59 -52 48 -81 72 -101 86 -18 13 -15 18 45 75 58 55 62 62 47 74 -10 7 -15 16
-11 19 3 4 1 7 -5 7 -6 0 -28 -14 -48 -32 -25 -22 -40 -29 -49 -22 -7 5 -37
28 -67 50 -30 23 -83 56 -118 74 -36 18 -69 39 -75 47 -17 23 -72 19 -99 -6
-21 -20 -27 -21 -47 -10 -13 7 -29 18 -36 24 -6 7 -53 15 -105 19 -51 4 -113
12 -138 18 -59 14 -170 64 -170 76 0 16 394 26 507 13 148 -17 271 -59 393
-135 66 -41 75 -44 82 -29 5 14 7 14 8 3 1 -10 5 -7 12 8 6 12 18 22 26 22 8
0 27 11 43 24 l29 25 -37 10 c-51 14 -58 14 -43 -4 7 -8 9 -22 6 -31 -10 -26
-39 3 -32 32 5 20 1 23 -47 29 -28 3 -72 13 -97 20 -25 8 -54 15 -65 17 -11 2
-23 7 -26 12 -4 5 -20 9 -37 10 -17 0 -28 4 -26 8 7 11 -223 52 -235 42 -2 -2
2 -4 10 -4 11 0 11 -2 -1 -10 -17 -11 -92 -2 -101 13 -4 5 -105 6 -267 2
l-262 -8 32 -41 c18 -22 37 -44 42 -48 6 -4 8 -9 6 -11 -3 -2 -66 -19 -140
-37 -182 -45 -286 -79 -405 -135 -86 -40 -101 -44 -111 -31 -9 13 -23 8 -100
-35 -49 -28 -95 -56 -101 -61 -9 -7 -13 -45 -13 -124 0 -95 2 -112 14 -108 17
6 18 2 41 -191 46 -376 144 -705 297 -995 58 -110 193 -317 265 -407 l34 -43
-25 0 c-18 0 -24 -4 -20 -15 8 -19 -3 -65 -15 -65 -5 0 -20 23 -32 50 -19 41
-29 52 -58 60 -19 5 -37 8 -39 5 -2 -2 15 -27 39 -54 23 -28 40 -54 37 -56 -6
-6 -111 117 -170 200 -72 101 -191 316 -247 447 -96 227 -174 507 -211 763
-26 184 -46 540 -32 577 7 18 40 43 104 81 255 150 506 252 766 313 62 14 111
28 108 31 -3 3 -26 6 -51 8 -30 2 -51 9 -59 20 -12 16 -19 16 -114 -9 -55 -14
-154 -44 -219 -66 -135 -47 -444 -198 -548 -268 l-70 -47 1 -225 c2 -720 227
-1374 644 -1875 l67 -80 -31 -51 c-17 -27 -32 -55 -34 -62 -5 -24 -62 -119
-83 -138 -19 -17 -20 -17 -13 1 6 13 4 16 -5 10 -22 -13 -54 -96 -43 -107 7
-7 7 -19 1 -35 -7 -18 -6 -22 4 -16 6 4 23 9 37 11 24 3 66 29 124 76 20 17
25 26 16 31 -9 6 -11 4 -5 -5 5 -9 4 -11 -3 -6 -19 11 4 38 85 97 41 30 79 56
84 58 6 1 26 -14 46 -34 34 -35 35 -39 19 -50 -15 -12 -13 -16 27 -49 37 -31
48 -35 69 -27 27 10 62 -4 52 -21 -4 -6 -3 -8 2 -5 5 3 21 -3 34 -14 l25 -20
-25 6 c-19 5 -21 4 -10 -4 8 -5 11 -13 8 -17 -4 -4 4 -16 18 -27 44 -34 177
-107 186 -101 4 3 8 0 8 -5 0 -26 257 -150 311 -151 43 0 363 164 408 209 10
10 45 34 78 54 76 47 127 93 118 108 -4 6 -10 7 -14 3 -3 -5 -13 -10 -21 -12
-8 -2 -13 -2 -10 1 3 3 29 25 59 50 44 38 57 44 73 36 15 -8 26 -4 56 22 21
19 37 43 38 56 1 12 -3 20 -8 17 -4 -3 -6 -9 -4 -13 3 -4 1 -13 -5 -21 -7 -12
-9 -12 -9 -1 0 11 -3 11 -15 1 -8 -7 -12 -17 -8 -24 3 -6 3 -8 -2 -4 -4 4 -15
2 -24 -4 -16 -13 102 116 172 187 58 58 174 214 258 345 88 139 187 341 248
507 l46 124 59 24 c33 14 83 40 110 58 28 19 69 37 90 40 96 15 145 130 93
222 -29 52 -91 83 -181 92 -62 6 -67 8 -62 27 35 144 55 711 26 740 -31 31
-233 144 -356 201 -71 33 -131 60 -133 61 -3 3 136 273 171 332 11 17 16 32
11 32 -4 0 -91 -66 -193 -145z m-325 -145 c3 -5 2 -10 -4 -10 -5 0 -13 5 -16
10 -3 6 -2 10 4 10 5 0 13 -4 16 -10z m-912 -57 c-7 -2 -19 -2 -25 0 -7 3 -2
5 12 5 14 0 19 -2 13 -5z m1372 -168 c72 -35 166 -85 210 -112 l80 -48 -1
-200 c0 -191 -24 -453 -45 -486 -6 -10 -21 -10 -70 -1 -34 6 -67 16 -72 21 -5
5 -3 57 7 132 20 149 23 182 25 232 1 40 20 52 23 15 1 -13 4 29 8 92 7 114 7
115 -18 136 -41 36 -269 147 -286 141 -9 -4 -16 -2 -16 3 0 6 -8 10 -17 10
-15 0 -16 -2 -3 -10 20 -13 0 -12 -40 2 -31 10 -32 12 -15 25 11 7 13 13 7 13
-12 0 16 67 41 98 13 17 29 11 182 -63z m-1517 -17 c59 -9 72 -15 72 -30 0
-10 -5 -18 -12 -18 -31 0 -96 -42 -102 -66 -5 -19 -11 -24 -24 -19 -9 4 -56 9
-104 12 -66 4 -99 2 -138 -11 -29 -10 -54 -15 -56 -13 -2 2 22 25 54 51 71 58
190 119 217 111 11 -3 53 -11 93 -17z m448 -34 c9 -37 -13 -67 -47 -62 -33 5
-40 -7 -9 -17 29 -9 60 12 67 46 3 16 10 29 15 29 26 0 218 -140 218 -160 0
-4 -10 -12 -22 -17 -18 -8 -33 -5 -70 13 -102 52 -191 74 -292 74 l-96 0 -41
37 c-22 20 -47 49 -55 65 l-15 28 77 0 c61 0 81 -4 101 -20 14 -11 32 -20 39
-20 8 0 14 -4 14 -8 0 -5 7 -17 15 -28 13 -17 14 -16 8 17 -4 30 -1 39 17 52
28 20 68 5 76 -29z m-315 -83 c33 -34 37 -69 12 -112 -55 -92 -200 -23 -163
77 26 68 100 85 151 35z m-636 -77 c-5 -40 -3 -54 4 -50 15 10 14 -9 -1 -21
-7 -6 -31 -14 -53 -17 -22 -4 -60 -16 -85 -27 -128 -57 -192 -204 -144 -331
23 -58 88 -125 149 -154 28 -12 43 -23 35 -23 -8 -1 -44 13 -79 29 -49 24 -76
30 -112 28 -43 -3 -46 -5 -37 -22 8 -14 7 -17 -3 -10 -7 4 -3 -7 10 -24 25
-36 30 -38 57 -17 25 19 55 19 80 0 10 -8 26 -15 35 -15 19 0 42 -47 32 -63
-4 -7 -9 -2 -13 13 -4 16 -21 33 -50 48 -44 23 -46 23 -77 7 -30 -17 -33 -17
-62 4 -36 26 -48 60 -31 91 26 49 -14 130 -65 130 -28 0 -38 25 -33 85 3 39
14 50 58 59 19 4 28 15 38 46 11 38 11 45 -9 76 l-21 35 37 44 36 45 35 -18
c35 -18 36 -18 85 5 38 19 49 29 49 48 0 49 8 55 77 55 l65 0 -7 -56z m731 6
c1 -16 9 -41 18 -55 15 -23 22 -25 84 -24 l67 0 -33 16 c-30 16 -39 40 -18 54
5 4 -10 10 -33 14 -62 10 -60 25 4 25 141 0 291 -70 429 -199 74 -70 116 -135
116 -178 0 -58 -42 -43 -167 60 -43 35 -114 88 -158 117 -44 29 -70 50 -57 47
35 -8 26 7 -15 27 -22 10 -33 12 -25 5 6 -7 12 -16 12 -19 0 -3 -46 1 -102 9
-94 15 -104 18 -115 43 -18 36 -27 88 -17 88 5 0 9 -13 10 -30z m-341 6 c22
-6 41 -18 43 -27 2 -12 -10 -15 -66 -15 -37 0 -83 -6 -101 -14 -31 -12 -35
-12 -48 6 -7 10 -12 25 -11 34 6 28 113 38 183 16z m-206 -58 c12 -20 10 -25
-33 -65 -25 -25 -50 -41 -56 -38 -7 4 -10 -2 -8 -17 3 -27 -32 -138 -44 -138
-4 0 -8 -29 -8 -65 0 -72 26 -163 66 -231 29 -49 16 -69 -15 -25 -36 51 -69
132 -82 200 -22 125 24 279 108 366 39 41 53 43 72 13z m222 -46 c12 -36 71
-61 95 -41 13 10 21 6 52 -24 33 -34 35 -37 20 -54 -15 -16 -15 -22 -2 -51 7
-19 22 -36 33 -39 20 -5 35 -52 25 -78 -4 -8 -17 -15 -29 -15 -32 0 -54 -60
-34 -96 11 -22 10 -27 -16 -54 -15 -16 -32 -27 -37 -24 -5 3 3 14 16 25 15 11
23 26 19 34 -3 8 -9 13 -13 10 -5 -3 -12 0 -16 6 -4 8 -3 9 4 5 7 -4 12 -2 12
3 0 18 -13 13 -55 -21 -34 -29 -47 -33 -110 -36 -67 -4 -73 -2 -115 30 -28 20
-55 53 -70 84 -27 53 -60 80 -79 61 -8 -8 -11 0 -11 26 0 30 4 37 19 37 12 0
24 13 34 38 14 33 14 39 -1 55 -15 17 -13 20 20 53 31 31 38 34 55 24 16 -10
25 -9 52 4 17 10 35 25 38 34 9 23 23 32 56 32 22 0 30 -6 38 -28z m298 -64
c16 -35 33 -78 36 -95 6 -32 6 -33 -29 -33 -33 0 -36 3 -72 77 -20 42 -32 79
-27 80 6 2 19 10 29 18 10 8 22 15 26 15 4 0 20 -28 37 -62z m-729 32 c0 -16
-39 -50 -57 -50 -51 0 -113 -67 -134 -143 -19 -71 24 -160 99 -199 53 -29 60
-64 10 -54 -116 23 -183 157 -147 291 13 46 49 98 85 121 52 35 144 56 144 34z
m1753 -15 c104 -43 163 -183 122 -290 -18 -47 -21 -50 -45 -35 -12 7 -12 14
-2 43 16 44 15 100 -2 140 -17 41 -74 91 -120 107 -20 6 -41 20 -46 31 -10 17
-7 19 23 19 19 0 50 -7 70 -15z m-113 -15 c0 -5 -4 -10 -10 -10 -5 0 -10 5
-10 10 0 6 5 10 10 10 6 0 10 -4 10 -10z m-767 -70 c50 -139 178 -214 326
-191 48 8 53 6 106 -31 71 -51 72 -70 2 -23 -30 20 -60 33 -68 30 -8 -3 -41
-9 -74 -14 l-60 -9 78 -1 c88 -1 102 -16 25 -26 -29 -4 -71 -13 -93 -20 -53
-17 -124 -4 -185 33 -32 20 -45 35 -45 51 0 12 -5 25 -11 29 -21 15 -52 68
-58 102 l-6 35 17 -25 c10 -14 35 -43 56 -65 l38 -40 -21 36 c-22 38 -60 144
-60 166 0 28 16 11 33 -37z m111 35 c27 -8 51 -13 54 -10 13 13 112 -57 112
-80 0 -6 14 -24 30 -40 17 -16 27 -32 22 -37 -19 -19 -102 -21 -147 -3 -50 19
-95 73 -95 114 0 14 -10 35 -22 48 -25 27 -20 28 46 8z m632 -53 c8 -40 -4
-83 -25 -90 -9 -3 -11 0 -6 8 5 8 0 11 -16 9 -13 -1 -32 1 -41 5 -16 7 -15 13
11 60 44 83 42 81 57 61 8 -10 17 -34 20 -53z m-1660 -38 c-3 -9 -6 -49 -6
-90 0 -62 -2 -72 -15 -67 -20 7 -45 55 -45 87 0 13 12 38 26 55 27 33 50 41
40 15z m1773 -10 c13 -16 21 -41 21 -63 l0 -36 -30 45 c-45 67 -37 112 9 54z
m-919 -39 c0 -12 -13 -15 -55 -15 -51 0 -65 7 -48 23 3 4 28 7 55 7 36 0 48
-4 48 -15z m-22 -63 c4 -25 -24 -54 -45 -47 -7 2 -10 -2 -6 -11 7 -18 -101
-161 -128 -169 -35 -11 -33 3 4 44 45 50 74 107 83 160 5 30 12 41 28 44 42 9
61 3 64 -21z m711 13 c51 -26 109 -30 132 -10 19 18 20 18 36 -6 9 -13 49 -57
89 -96 60 -58 94 -83 177 -122 158 -77 249 -100 520 -127 96 -9 153 -81 107
-135 -15 -17 -23 -20 -27 -11 -18 44 -72 53 -158 27 -27 -8 -51 -12 -53 -10
-3 2 -11 -3 -19 -11 -8 -8 -19 -11 -25 -8 -6 4 -8 2 -4 -4 11 -17 -91 -45
-178 -47 -50 -2 -73 0 -61 5 14 6 1 9 -40 9 l-60 0 54 -15 c30 -8 57 -17 60
-19 10 -11 -85 -4 -152 11 -76 17 -188 65 -167 72 6 2 17 -1 23 -7 6 -6 16
-11 21 -11 6 0 6 3 1 9 -14 13 -96 41 -89 30 10 -16 -10 -10 -106 35 -154 72
-241 104 -305 111 -33 4 -64 10 -68 12 -5 3 23 21 61 39 113 55 182 152 182
256 0 42 7 45 49 23z m-653 -22 c-10 -10 -19 5 -10 18 6 11 8 11 12 0 2 -7 1
-15 -2 -18z m96 -137 c29 -13 72 -27 96 -31 23 -4 42 -10 42 -14 0 -4 -16 -23
-36 -42 -50 -48 -59 -66 -31 -64 12 1 25 -3 29 -9 4 -6 8 8 8 31 0 23 5 45 10
48 10 6 14 -6 11 -35 -1 -11 2 -10 13 4 42 52 68 76 85 76 15 0 5 -20 -49
-102 -100 -151 -134 -212 -116 -205 9 4 22 0 30 -8 10 -11 48 -15 145 -17 72
-2 131 -6 131 -10 0 -3 -51 -55 -114 -114 -115 -109 -124 -123 -94 -161 13
-17 -10 -27 -25 -11 -8 7 -16 19 -18 25 -2 6 -90 -70 -196 -170 -144 -137
-189 -185 -181 -195 8 -9 6 -12 -9 -10 -20 3 -115 -83 -453 -407 -63 -60 -148
-141 -188 -180 l-74 -70 77 118 c42 65 157 241 255 390 99 149 177 273 175
276 -3 2 -23 -10 -44 -27 -22 -18 -46 -32 -53 -32 -7 0 2 10 20 21 41 27 36
33 -16 20 -31 -9 -39 -15 -36 -29 3 -9 -1 -26 -9 -36 -14 -19 -15 -19 -45 2
-30 22 -32 22 -66 5 -43 -20 -60 -9 -26 17 l24 18 -85 84 c-47 46 -103 110
-125 143 -41 61 -94 171 -94 196 -1 11 -3 10 -10 -2 -18 -31 13 -117 96 -257
10 -17 0 -10 -25 18 -23 25 -56 74 -73 109 -35 69 -29 68 -74 6 -11 -15 -16
-17 -26 -7 -9 9 0 36 39 119 28 60 59 131 69 158 l18 50 7 -68 c15 -139 69
-261 164 -366 48 -53 176 -150 206 -156 33 -7 137 24 144 43 8 22 1 25 -62 25
-67 -1 -83 9 -83 47 0 21 -10 37 -39 59 -39 31 -40 31 -44 9 -3 -20 -4 -21
-11 -5 -10 22 -1 47 17 47 8 0 34 -16 58 -35 27 -21 51 -33 61 -29 22 6 58
-29 58 -57 0 -19 4 -21 36 -16 33 6 74 38 74 59 0 15 -32 21 -40 8 -7 -11 -11
-11 -24 -1 -19 16 -21 35 -3 25 6 -4 1 5 -12 19 l-24 27 23 0 c13 0 37 -12 52
-27 15 -15 28 -21 28 -15 0 7 5 12 10 12 6 0 10 -6 10 -14 0 -7 8 -20 17 -27
12 -10 14 -10 9 -1 -4 7 -1 15 9 18 16 7 95 110 95 126 0 4 -88 8 -196 8
l-196 0 19 24 c26 33 209 252 260 310 46 51 52 66 28 66 -8 0 -15 7 -15 15 0
8 5 15 11 15 13 0 -17 51 -37 63 -14 8 -8 37 6 37 5 0 12 -10 16 -22 4 -13 18
-41 32 -62 l24 -39 49 54 c27 30 77 86 111 126 l61 72 28 -20 c16 -11 52 -30
81 -43z m-557 -76 c13 0 29 8 34 18 9 15 10 14 11 -6 0 -21 -4 -23 -42 -20
-34 2 -43 7 -46 23 -2 18 -2 18 8 3 6 -10 22 -18 35 -18z m-344 -12 c9 -16 7
-47 -6 -137 -25 -161 -39 -166 -32 -11 6 113 13 170 23 170 2 0 8 -10 15 -22z
m219 -13 c26 -13 66 -27 88 -31 30 -5 42 -12 51 -33 9 -21 9 -23 -1 -10 -7 9
-34 19 -59 22 -26 3 -63 14 -83 23 -39 19 -42 18 -48 -11 -2 -16 12 -27 72
-57 86 -43 155 -57 146 -30 -4 11 1 8 14 -7 28 -33 25 -41 -15 -41 -63 0 -169
43 -247 101 -8 5 19 99 28 99 3 0 27 -11 54 -25z m251 -51 c16 -33 16 -35 -3
-45 -11 -6 -21 -9 -22 -7 -27 37 -43 78 -33 82 28 11 43 3 58 -30z m-727 -79
c8 -11 20 -16 29 -12 9 3 19 2 22 -3 8 -13 -22 -124 -35 -128 -5 -2 -8 -7 -6
-11 5 -8 -6 -11 -62 -14 -18 -1 -36 -8 -41 -15 -6 -10 -10 -4 -15 18 -4 22
-10 30 -20 27 -20 -8 -28 19 -10 34 10 8 14 22 11 39 -7 33 2 47 33 51 17 3
24 9 22 21 -2 14 3 17 28 15 17 -2 36 -12 44 -22z m365 -59 c-2 -35 3 -60 15
-77 17 -27 13 -56 -11 -74 -7 -6 -15 -42 -18 -85 -8 -98 -13 -122 -26 -114 -6
4 -8 39 -3 98 5 78 4 94 -10 105 -22 18 -20 57 3 80 11 11 21 41 25 75 9 70
28 64 25 -8z m1134 24 c26 0 265 -79 272 -90 8 -13 13 -14 -80 15 -44 14 -109
28 -145 32 -77 7 -92 13 -119 52 l-21 29 37 -19 c21 -11 45 -19 56 -19z m-153
-24 c0 -7 -9 -16 -20 -19 -23 -6 -26 3 -8 21 16 16 28 15 28 -2z m-898 -11
c10 -4 12 -30 10 -109 -3 -91 -6 -106 -24 -123 l-21 -18 7 79 c3 43 6 101 6
128 0 50 0 51 22 43z m840 -47 c-7 -7 -12 -8 -12 -2 0 14 12 26 19 19 2 -3 -1
-11 -7 -17z m-742 -26 c0 -26 -7 -45 -20 -57 -20 -18 -20 -17 -20 38 0 50 2
57 20 57 17 0 20 -7 20 -38z m2076 -41 c-36 -37 -100 -65 -198 -85 -117 -24
-257 -16 -348 20 -48 20 -48 28 1 14 67 -20 159 -28 216 -20 115 17 138 22
141 30 2 5 11 6 20 3 9 -3 14 -2 9 2 -9 10 126 63 162 64 l25 1 -28 -29z
m-661 -11 c37 -13 43 -19 25 -19 -14 0 -43 8 -65 18 -51 25 -25 25 40 1z m362
14 c-3 -3 -12 -4 -19 -1 -8 3 -5 6 6 6 11 1 17 -2 13 -5z m-433 -90 c77 -30
157 -62 176 -70 l35 -14 -53 6 c-29 3 -110 24 -180 45 -70 21 -137 39 -149 39
-12 0 -35 -14 -52 -31 -76 -76 -63 -226 32 -362 53 -76 63 -99 77 -178 14 -76
6 -135 -21 -169 l-20 -25 6 51 c7 52 -7 155 -27 209 -6 17 -30 57 -53 90 -70
100 -78 121 -83 225 -4 83 -2 102 16 135 32 63 84 103 136 104 10 1 82 -24
160 -55z m-438 -65 c7 -12 -15 -31 -31 -26 -5 2 -11 11 -13 20 -4 19 32 24 44
6z m929 -36 c-4 -10 -15 -40 -25 -68 -54 -149 -132 -308 -231 -468 -72 -115
-159 -228 -171 -220 -6 3 -8 1 -5 -4 7 -11 -30 -50 -39 -41 -5 6 62 107 79
119 5 3 16 17 25 31 9 14 40 59 69 101 60 90 148 259 192 370 33 82 37 102 21
92 -5 -3 -10 -3 -10 2 0 4 -11 13 -25 19 -23 11 -25 10 -45 -45 -22 -58 -149
-305 -180 -351 -10 -14 -43 -64 -73 -112 -53 -83 -55 -87 -35 -94 21 -6 21 -7
-5 -26 -15 -11 -27 -27 -27 -36 -1 -10 -9 -30 -18 -47 -24 -41 -149 -159 -192
-179 -31 -15 -28 -10 26 41 70 65 124 137 124 164 0 11 -42 -24 -117 -100 -65
-65 -143 -139 -173 -165 -84 -72 -283 -202 -397 -259 l-103 -51 0 -48 c0 -26
3 -48 6 -48 3 0 58 27 123 60 129 66 286 162 388 239 36 28 71 47 76 44 28
-17 -257 -214 -446 -309 l-148 -74 -139 70 c-77 39 -188 103 -247 143 -109 73
-298 225 -289 234 7 8 59 -23 106 -64 97 -83 180 -123 180 -87 0 15 28 26 42
17 7 -3 8 -1 4 6 -4 6 -34 29 -67 52 -72 49 -169 139 -169 157 0 7 -5 10 -12
6 -7 -4 -8 -3 -4 4 10 17 24 15 30 -6 3 -10 18 -23 33 -30 16 -6 53 -32 83
-57 67 -55 244 -163 364 -221 l89 -44 111 58 c253 131 503 333 670 542 141
177 299 452 358 622 l23 67 75 4 c41 1 81 4 89 5 9 1 11 -4 6 -15z m-900 -63
c-25 -28 -74 -45 -88 -31 -8 8 -6 11 10 11 13 0 35 16 55 40 29 34 33 37 36
19 2 -11 -4 -29 -13 -39z m-735 0 c0 -11 -4 -20 -10 -20 -5 0 -10 9 -10 20 0
11 5 20 10 20 6 0 10 -9 10 -20z m770 -112 c6 -24 24 -82 39 -129 30 -91 29
-111 -11 -163 -14 -18 -16 -17 -61 5 -36 19 -44 27 -37 39 8 12 10 12 15 -2 4
-10 13 -15 23 -11 15 4 15 3 2 -7 -12 -9 -12 -11 -1 -8 29 8 20 23 -22 41 -52
21 -57 21 -57 1 0 -8 -5 -12 -10 -9 -6 4 -9 14 -8 23 2 11 -13 25 -46 42 -38
19 -52 32 -58 55 -7 30 -7 30 10 8 9 -12 46 -34 82 -49 36 -14 80 -33 97 -40
31 -13 33 -13 49 11 13 20 14 31 6 48 l-11 22 -7 -22 c-14 -48 -36 -12 -54 88
-11 60 -11 64 10 81 32 26 38 23 50 -24z m-114 -9 c3 -5 2 -9 -1 -9 -9 0 -65
30 -65 35 0 7 60 -16 66 -26z m-1040 -331 c42 -32 53 -51 35 -62 -19 -12 -321
296 -321 327 0 2 54 -50 121 -114 67 -65 141 -133 165 -151z m2 128 c89 -69
122 -106 94 -106 -18 0 -248 204 -264 234 -8 15 1 10 28 -14 22 -19 86 -71
142 -114z m834 52 c35 -89 43 -145 39 -251 -2 -56 -28 -4 -39 80 -6 44 -18 96
-26 114 -8 19 -18 51 -21 72 -3 20 -10 37 -16 37 -13 0 -8 -60 7 -85 16 -27
24 -78 15 -93 -4 -7 -17 26 -30 76 l-23 88 24 27 c12 15 25 27 28 27 3 0 22
-42 42 -92z m257 55 c0 -13 -2 -14 -6 -4 -4 11 -7 11 -14 0 -4 -7 -11 -10 -16
-6 -4 5 -1 12 7 17 22 14 30 12 29 -7z m-376 -165 c8 -28 4 -32 -22 -23 -27 8
-28 45 -2 45 11 0 21 -9 24 -22z m573 -34 c9 -64 -1 -233 -16 -269 -11 -24
-14 -26 -17 -12 -3 12 -12 17 -26 15 -17 -2 -24 -13 -32 -52 -15 -69 -38 -75
-29 -8 l6 51 -33 3 c-33 3 -34 5 -43 55 -6 38 -14 54 -28 59 -30 9 -39 46 -16
63 19 13 17 15 -28 42 -27 16 -53 29 -58 29 -4 0 -6 -30 -2 -67 3 -38 4 -63 2
-58 -11 28 -38 166 -34 171 3 2 58 -21 122 -51 65 -30 122 -55 126 -55 5 0 26
29 47 65 21 35 41 65 45 65 4 0 10 -21 14 -46z m-564 -100 c95 -70 164 -170
192 -277 19 -72 23 -174 8 -189 -17 -17 -20 -9 -31 64 -13 93 -37 129 -63 93
-4 -5 -14 -2 -26 8 -10 9 -25 17 -33 17 -12 0 -11 2 1 10 13 8 13 10 -2 10 -9
0 -18 5 -20 11 -3 9 -10 9 -26 0 -26 -14 -29 -52 -7 -71 8 -7 15 -25 15 -41 0
-37 -36 -57 -69 -40 -25 14 -29 62 -6 81 24 20 18 67 -11 92 -14 13 -32 37
-40 54 -8 16 -35 43 -59 59 -58 36 -72 53 -52 61 9 3 24 1 35 -5 28 -15 38 15
15 42 -17 19 -17 20 3 15 12 -3 28 -2 35 3 11 7 10 9 -3 9 -10 0 -17 5 -15 11
1 6 -4 14 -12 17 -8 2 -11 0 -8 -5 3 -5 0 -10 -8 -10 -8 0 -13 3 -10 5 3 3 -2
10 -11 16 -14 10 -12 15 11 38 l26 26 61 -34 c34 -19 83 -51 110 -70z m-798
60 c4 -10 1 -14 -6 -12 -15 5 -23 28 -10 28 5 0 13 -7 16 -16z m1100 -85 c9
-44 7 -112 -3 -127 -10 -16 -21 40 -21 111 0 53 14 63 24 16z m-581 -84 c93
-51 100 -61 105 -159 4 -81 -11 -208 -27 -235 -15 -24 -33 -3 -19 22 14 24 18
234 6 277 -5 16 -32 41 -78 70 -65 42 -83 60 -60 60 5 0 38 -16 73 -35z m-71
-77 c62 -42 63 -44 66 -93 2 -27 0 -66 -3 -85 -6 -33 -8 -34 -21 -15 -8 10
-14 43 -15 74 l0 56 -60 42 c-32 24 -59 47 -59 53 0 20 29 9 92 -32z m1172
-46 c6 -9 -50 -72 -58 -65 -3 4 -6 1 -6 -5 0 -18 -71 -93 -81 -86 -5 3 -9 -1
-9 -9 0 -8 -7 -17 -15 -21 -8 -3 -15 -3 -15 -1 0 3 36 44 80 91 44 48 80 90
80 95 0 11 17 12 24 1z m-1697 -37 c0 -8 -4 -12 -9 -9 -4 3 -8 9 -8 15 0 5 4
9 8 9 5 0 9 -7 9 -15z m208 -135 c3 -6 -1 -7 -9 -4 -18 7 -21 14 -7 14 6 0 13
-4 16 -10z m1360 -160 c-3 -5 -12 -10 -18 -10 -7 0 -6 4 3 10 19 12 23 12 15
0z m-310 -220 c-3 -5 -12 -10 -18 -10 -7 0 -6 4 3 10 19 12 23 12 15 0z"/>
<path d="M3592 3870 c0 -14 2 -19 5 -12 2 6 2 18 0 25 -3 6 -5 1 -5 -13z"/>
<path d="M1740 4330 c-9 -6 -10 -10 -3 -10 6 0 15 5 18 10 8 12 4 12 -15 0z"/>
<path d="M2312 4354 c1 -9 9 -19 16 -22 9 -3 13 2 10 14 -1 9 -9 19 -16 22 -9
3 -13 -2 -10 -14z"/>
<path d="M1958 4236 c-19 -44 8 -74 56 -62 29 7 38 38 19 65 -20 29 -61 27
-75 -3z m52 -26 c-11 -21 -40 -17 -40 6 0 8 10 14 25 14 22 0 24 -3 15 -20z"/>
<path d="M2675 3964 c-14 -14 -21 -15 -36 -6 -27 17 -32 -2 -6 -25 38 -35 115
-75 122 -64 8 13 -20 74 -45 96 -16 15 -19 15 -35 -1z"/>
<path d="M1743 4030 c-92 -22 -144 -105 -128 -206 7 -52 42 -97 96 -124 103
-53 230 19 246 139 8 58 -33 140 -84 168 -47 26 -89 33 -130 23z m65 -53 c3
-22 -1 -27 -17 -27 -17 0 -21 6 -21 31 0 24 4 30 18 27 10 -2 18 -14 20 -31z
m69 -9 c27 -26 29 -34 7 -42 -21 -8 -54 20 -54 46 0 24 19 23 47 -4z m-50 -64
c20 -20 24 -32 19 -56 -16 -82 -126 -75 -126 8 0 23 7 38 26 53 35 27 49 26
81 -5z m93 -11 c0 -22 -2 -25 -10 -13 -5 8 -10 11 -10 6 0 -6 -6 -4 -12 2 -10
10 -10 15 2 22 24 15 30 12 30 -17z m-235 -3 c8 -13 -5 -13 -25 0 -13 8 -13
10 2 10 9 0 20 -4 23 -10z m26 -105 c30 -30 36 -49 19 -60 -14 -8 -50 13 -50
30 0 7 -6 15 -12 18 -10 3 -10 7 1 20 12 15 9 21 -11 19 -3 -1 -9 5 -12 14 -3
8 -2 12 3 9 5 -3 13 0 18 7 6 9 9 7 11 -8 2 -12 16 -34 33 -49z m80 -35 c5 0
9 -9 9 -20 0 -15 -7 -20 -25 -20 -20 0 -25 5 -25 26 0 20 4 25 16 20 9 -3 20
-6 25 -6z"/>
<path d="M2936 3898 c3 -5 10 -6 15 -3 13 9 11 12 -6 12 -8 0 -12 -4 -9 -9z"/>
<path d="M2856 3735 c-13 -35 -7 -64 14 -62 24 2 24 5 6 47 -10 25 -14 29 -20
15z"/>
<path d="M2940 3675 c0 -23 46 -65 71 -65 11 0 34 -9 50 -21 33 -23 35 -20 15
20 -31 58 -136 109 -136 66z"/>
<path d="M2728 3542 c-26 -16 -33 -36 -12 -38 17 -1 189 -56 199 -64 11 -8 75
-22 75 -16 0 2 -35 23 -77 46 -43 23 -92 53 -110 66 -37 28 -39 28 -75 6z"/>
<path d="M1810 3130 c-11 -7 -3 -10 30 -10 33 0 41 3 30 10 -8 5 -22 10 -30
10 -8 0 -22 -5 -30 -10z"/>
<path d="M2181 2947 c-6 -6 -4 -15 5 -25 10 -9 13 -24 9 -39 -5 -21 -3 -23 12
-14 27 15 76 71 64 72 -14 2 -30 6 -33 9 -9 7 -49 5 -57 -3z"/>
<path d="M2150 2910 c-7 -41 -7 -61 2 -52 5 5 8 22 5 38 -2 16 -5 22 -7 14z"/>
<path d="M1727 2886 c-9 -22 18 -40 33 -22 6 9 9 20 5 26 -9 15 -32 12 -38 -4z"/>
<path d="M2095 2820 c-3 -5 -3 -14 0 -20 10 -16 35 -12 35 6 0 9 5 12 12 8 7
-5 8 -3 4 5 -6 9 -13 8 -29 -6 -19 -17 -20 -17 -14 0 7 18 2 23 -8 7z"/>
<path d="M1970 2668 c0 -5 -5 -6 -12 -2 -6 4 -8 3 -5 -4 9 -13 -2 -44 -13 -37
-4 3 -11 -2 -14 -11 -11 -29 1 -26 31 9 17 19 36 36 44 39 9 3 5 7 -9 10 -12
4 -22 2 -22 -4z"/>
<path d="M1870 2580 c0 -5 -12 -21 -27 -35 -15 -14 -24 -25 -20 -25 5 0 -5
-11 -22 -26 -17 -14 -45 -44 -63 -67 l-32 -42 30 24 c47 39 164 162 164 172 0
5 -7 9 -15 9 -8 0 -15 -4 -15 -10z"/>
<path d="M1118 3379 c-35 -20 -14 -89 27 -89 23 0 55 32 55 57 0 17 -29 43
-48 43 -9 0 -25 -5 -34 -11z"/>
<path d="M1504 3279 c-8 -14 21 -43 35 -35 6 4 11 16 11 27 0 21 -34 27 -46 8z"/>
<path d="M2217 2134 c-16 -16 -6 -35 16 -32 12 2 22 10 22 18 0 16 -26 25 -38
14z"/>
<path d="M2288 4703 c7 -3 16 -2 19 1 4 3 -2 6 -13 5 -11 0 -14 -3 -6 -6z"/>
<path d="M2845 4689 c3 -13 -4 -17 -28 -18 -95 -3 -94 -11 6 -35 69 -17 108
-11 106 17 0 9 -2 9 -6 0 -2 -7 -17 -13 -31 -12 -24 0 -25 1 -7 9 l20 9 -20 1
c-15 1 -12 4 10 11 17 5 39 6 50 3 13 -4 17 -3 10 4 -5 5 -33 14 -62 19 -46 9
-51 8 -48 -8z"/>
<path d="M2533 4688 c16 -10 104 -10 110 0 3 4 -23 7 -58 7 -35 0 -58 -3 -52
-7z"/>
<path d="M1788 4673 c6 -2 18 -2 25 0 6 3 1 5 -13 5 -14 0 -19 -2 -12 -5z"/>
<path d="M2178 4593 c12 -2 30 -2 40 0 9 3 -1 5 -23 4 -22 0 -30 -2 -17 -4z"/>
<path d="M1001 2957 c-1 -10 -5 -16 -10 -13 -15 10 -21 -22 -10 -52 15 -39 57
-132 75 -167 9 -16 32 -60 51 -98 36 -72 90 -140 103 -132 4 3 17 -10 28 -29
25 -42 60 -65 58 -38 -1 11 5 16 17 14 24 -4 22 2 -22 66 -86 128 -193 320
-235 426 -13 31 -19 36 -30 27 -11 -9 -15 -9 -19 1 -3 8 -6 6 -6 -5z"/>
<path d="M1328 2395 c13 -9 26 -14 29 -11 8 8 3 12 -27 21 l-25 7 23 -17z"/>
<path d="M1130 1700 c-9 -6 -10 -10 -3 -10 6 0 15 5 18 10 8 12 4 12 -15 0z"/>
<path d="M1060 1669 c-17 -31 -8 -40 20 -18 14 12 19 18 13 14 -9 -4 -11 -1
-7 9 9 24 -14 19 -26 -5z"/>
<path d="M1023 983 c4 -6 2 -13 -5 -15 -7 -3 -12 -26 -12 -61 -1 -91 0 -91
229 -95 l194 -3 6 38 c3 21 8 53 11 71 l5 32 -46 0 c-42 0 -47 -3 -57 -30 -14
-40 -29 -47 -118 -49 -90 -3 -129 18 -126 66 2 24 -2 28 -27 30 -16 1 -36 8
-45 15 -10 8 -13 9 -9 1z"/>
<path d="M1708 983 c-24 -4 -27 -9 -33 -61 -3 -31 -9 -70 -12 -85 l-5 -28 59
3 58 3 9 78 c5 42 7 79 5 81 -9 7 -55 12 -81 9z"/>
<path d="M3566 971 c4 -14 2 -21 -3 -18 -6 4 -15 -4 -21 -18 -18 -39 -57 -58
-120 -59 -70 0 -114 22 -132 65 -12 29 -16 31 -53 26 -22 -3 -43 -11 -47 -18
-18 -29 12 -98 52 -121 13 -7 75 -14 143 -16 107 -4 127 -2 170 17 52 22 95
71 95 108 0 23 -26 39 -34 20 -3 -9 -5 -9 -5 1 -1 6 -10 12 -20 12 -11 0 -22
6 -25 13 -3 6 -3 1 0 -12z"/>
<path d="M2590 956 c0 -38 23 -87 55 -116 26 -24 31 -25 174 -25 140 0 149 1
183 25 20 13 43 36 51 50 17 30 33 93 17 70 -5 -8 -10 -10 -10 -5 0 6 -16 10
-35 10 -19 -1 -35 3 -35 9 -1 6 -15 -5 -33 -25 -42 -47 -69 -61 -124 -61 -55
0 -100 18 -108 43 -6 17 -17 23 -37 20 -5 0 -8 3 -8 8 0 5 -15 8 -32 7 -18 -2
-39 1 -45 7 -10 7 -13 3 -13 -17z"/>
<path d="M360 937 c-5 -17 -10 -47 -10 -69 0 -57 17 -60 265 -56 200 3 212 4
242 26 31 22 53 71 53 117 0 15 -2 17 -9 6 -5 -7 -13 -11 -19 -7 -5 3 -26 8
-46 11 -31 5 -37 3 -45 -17 -18 -48 -35 -53 -175 -53 -122 0 -131 1 -141 21
-17 34 -38 49 -72 50 -27 0 -34 -4 -43 -29z"/>
<path d="M2367 926 c-52 -67 -168 -72 -237 -10 -28 25 -47 34 -73 34 -42 0
-50 -19 -28 -68 24 -53 78 -72 202 -72 162 0 223 29 249 120 l9 30 -49 0 c-42
0 -50 -4 -73 -34z"/>
<path d="M3867 938 c-3 -13 -9 -47 -13 -75 l-7 -53 56 0 c63 0 67 5 67 85 0
58 -7 65 -65 65 -26 0 -34 -5 -38 -22z"/>
<path d="M4245 925 c23 -8 85 -10 85 -3 0 4 -21 8 -47 7 -27 0 -43 -2 -38 -4z"/>
<path d="M4458 923 c6 -2 18 -2 25 0 6 3 1 5 -13 5 -14 0 -19 -2 -12 -5z"/>
<path d="M4310 875 c-11 -13 -10 -14 4 -9 9 3 16 10 16 15 0 13 -6 11 -20 -6z"/>
<path d="M823 635 c0 -22 2 -30 4 -17 2 12 2 30 0 40 -3 9 -5 -1 -4 -23z"/>
<path d="M2150 527 l5 -142 3 134 c1 74 -1 138 -5 142 -4 5 -6 -56 -3 -134z"/>
<path d="M954 535 l1 -110 38 -1 37 -1 -35 4 -34 4 -4 107 -3 107 0 -110z"/>
<path d="M566 613 c-6 -14 -5 -15 5 -6 7 7 10 15 7 18 -3 3 -9 -2 -12 -12z"/>
<path d="M862 590 c0 -19 2 -27 5 -17 2 9 2 25 0 35 -3 9 -5 1 -5 -18z"/>
<path d="M1536 605 c-9 -26 -7 -32 5 -12 6 10 9 21 6 23 -2 3 -7 -2 -11 -11z"/>
<path d="M2193 565 c0 -33 2 -45 4 -27 2 18 2 45 0 60 -2 15 -4 0 -4 -33z"/>
<path d="M2502 580 c0 -19 2 -27 5 -17 2 9 2 25 0 35 -3 9 -5 1 -5 -18z"/>
<path d="M1154 495 c0 -60 1 -84 3 -52 2 32 2 81 0 110 -2 29 -3 3 -3 -58z"/>
<path d="M2290 590 c0 -5 7 -7 15 -4 8 4 15 8 15 10 0 2 -7 4 -15 4 -8 0 -15
-4 -15 -10z"/>
<path d="M2591 518 c0 -62 3 -76 9 -55 5 16 15 36 22 45 12 15 11 16 -4 3 -17
-12 -18 -10 -18 33 l0 47 52 -3 c46 -3 53 -6 59 -28 6 -21 7 -22 8 -4 2 32
-19 44 -76 44 l-53 0 1 -82z"/>
<path d="M3050 593 c0 -5 27 -8 59 -8 33 0 57 3 54 8 -2 4 -29 7 -59 7 -30 0
-54 -3 -54 -7z"/>
<path d="M3390 593 c0 -5 27 -8 59 -8 33 0 57 3 54 8 -2 4 -29 7 -59 7 -30 0
-54 -3 -54 -7z"/>
<path d="M3768 593 c7 -3 16 -2 19 1 4 3 -2 6 -13 5 -11 0 -14 -3 -6 -6z"/>
<path d="M551 574 c0 -11 3 -14 6 -6 3 7 2 16 -1 19 -3 4 -6 -2 -5 -13z"/>
<path d="M1823 530 c0 -36 2 -50 4 -32 2 17 2 47 0 65 -2 17 -4 3 -4 -33z"/>
<path d="M1610 574 c0 -3 7 -12 15 -20 16 -17 18 -14 9 10 -6 15 -24 23 -24
10z"/>
<path d="M1711 577 c-1 -12 41 -108 45 -104 3 2 -7 28 -20 58 -14 30 -25 50
-25 46z"/>
<path d="M3972 518 c-1 -37 -6 -78 -12 -93 -6 -16 -6 -24 0 -20 14 9 22 63 17
125 l-3 55 -2 -67z"/>
<path d="M3632 545 c0 -16 2 -22 5 -12 2 9 2 23 0 30 -3 6 -5 -1 -5 -18z"/>
<path d="M1901 523 c1 -31 2 -34 8 -14 6 23 7 22 35 -18 26 -37 49 -59 29 -28
-24 38 -66 97 -69 97 -2 0 -4 -17 -3 -37z"/>
<path d="M1596 535 c-9 -26 -7 -32 5 -12 6 10 9 21 6 23 -2 3 -7 -2 -11 -11z"/>
<path d="M2802 530 c0 -14 2 -19 5 -12 2 6 2 18 0 25 -3 6 -5 1 -5 -13z"/>
<path d="M543 505 c0 -22 2 -30 4 -17 2 12 2 30 0 40 -3 9 -5 -1 -4 -23z"/>
<path d="M3601 524 c0 -11 3 -14 6 -6 3 7 2 16 -1 19 -3 4 -6 -2 -5 -13z"/>
<path d="M2503 480 c0 -30 2 -43 4 -27 2 15 2 39 0 55 -2 15 -4 2 -4 -28z"/>
<path d="M862 449 c-2 -53 2 -69 16 -80 15 -12 16 -12 5 1 -7 9 -14 45 -16 80
l-3 65 -2 -66z"/>
<path d="M1645 500 c-3 -5 -1 -10 4 -10 6 0 11 5 11 10 0 6 -2 10 -4 10 -3 0
-8 -4 -11 -10z"/>
<path d="M3403 503 c-20 -8 -16 -19 23 -60 l36 -38 -27 37 c-15 21 -25 45 -21
53 3 8 4 15 3 14 -1 0 -8 -3 -14 -6z"/>
<path d="M1246 482 c-2 -4 28 -6 67 -4 111 5 121 9 25 11 -48 0 -89 -3 -92 -7z"/>
<path d="M2060 480 c0 -5 5 -10 10 -10 6 0 10 5 10 10 0 6 -4 10 -10 10 -5 0
-10 -4 -10 -10z"/>
<path d="M2287 483 c-4 -3 -7 -16 -6 -27 0 -21 1 -21 8 -1 7 17 20 21 92 26
l84 5 -86 2 c-47 1 -89 -1 -92 -5z"/>
<path d="M3631 464 c0 -11 3 -14 6 -6 3 7 2 16 -1 19 -3 4 -6 -2 -5 -13z"/>
<path d="M2725 450 c3 -5 8 -10 11 -10 2 0 4 5 4 10 0 6 -5 10 -11 10 -5 0 -7
-4 -4 -10z"/>
<path d="M3525 450 c4 -6 11 -8 16 -5 14 9 11 15 -7 15 -8 0 -12 -5 -9 -10z"/>
<path d="M806 423 c14 -10 24 -61 12 -67 -5 -2 -3 -3 4 -2 8 2 13 17 13 37 0
26 -5 34 -20 37 -12 2 -16 0 -9 -5z"/>
<path d="M1556 422 c-2 -4 12 -6 32 -4 56 5 62 10 15 11 -23 1 -44 -3 -47 -7z"/>
<path d="M1131 393 c-1 -24 -6 -33 -23 -36 l-23 -4 23 -2 c25 -1 36 16 29 51
-3 18 -5 16 -6 -9z"/>
<path d="M1443 408 c-6 -7 -13 -23 -16 -35 -4 -20 -1 -23 21 -22 17 1 21 3 10
6 -21 5 -22 8 -7 35 12 23 7 35 -8 16z"/>
<path d="M2024 383 c17 -18 37 -33 45 -32 14 0 14 1 1 6 -8 3 -28 17 -45 32
l-30 26 29 -32z"/>
<path d="M2501 383 c-1 -25 3 -33 17 -33 11 0 13 3 6 8 -7 4 -14 18 -17 32 -4
21 -4 20 -6 -7z"/>
<path d="M3041 394 c0 -11 3 -14 6 -6 3 7 2 16 -1 19 -3 4 -6 -2 -5 -13z"/>
<path d="M3665 390 c10 -11 20 -20 23 -20 3 0 -3 9 -13 20 -10 11 -20 20 -23
20 -3 0 3 -9 13 -20z"/>
<path d="M1794 378 c1 -18 6 -26 17 -25 10 1 14 7 11 19 -2 10 -8 16 -12 13
-5 -3 -10 1 -13 7 -2 7 -4 1 -3 -14z"/>
<path d="M608 368 c5 -5 16 -8 23 -6 8 3 3 7 -10 11 -17 4 -21 3 -13 -5z"/>
<path d="M1169 368 c11 -15 27 -18 85 -16 l71 2 -70 3 c-38 2 -76 9 -85 16
-13 11 -13 10 -1 -5z"/>
<path d="M1522 364 c-7 -8 -8 -14 -3 -14 10 0 25 19 20 25 -2 1 -10 -3 -17
-11z"/>
<path d="M2120 360 c-9 -6 -10 -10 -3 -10 6 0 15 5 18 10 8 12 4 12 -15 0z"/>
<path d="M3000 360 l-45 -7 42 -1 c23 -1 45 3 48 8 3 6 5 9 3 8 -2 0 -23 -4
-48 -8z"/>
<path d="M3710 360 c8 -5 28 -10 44 -10 39 0 30 6 -19 13 -27 4 -35 3 -25 -3z"/>
<path d="M678 353 c17 -2 47 -2 65 0 17 2 3 4 -33 4 -36 0 -50 -2 -32 -4z"/>
<path d="M938 353 c23 -2 59 -2 80 0 20 2 1 4 -43 4 -44 0 -61 -2 -37 -4z"/>
<path d="M2378 353 c7 -3 16 -2 19 1 4 3 -2 6 -13 5 -11 0 -14 -3 -6 -6z"/>
<path d="M2553 353 c9 -2 23 -2 30 0 6 3 -1 5 -18 5 -16 0 -22 -2 -12 -5z"/>
<path d="M3308 353 c7 -3 16 -2 19 1 4 3 -2 6 -13 5 -11 0 -14 -3 -6 -6z"/>
<path d="M3848 353 c6 -2 18 -2 25 0 6 3 1 5 -13 5 -14 0 -19 -2 -12 -5z"/>
</g>
</svg>
